PathFileType	4	(X/Y/Z)	Walk5.trc
DataRate	CameraRate	NumFrames	NumMarkers	Units	OrigDataRate	OrigDataStartFrame	OrigNumFrames
200.000000	200.000000	9	59	mm	200.000000	316	531
Frame#	Times		RFHD		CLAV		RASI		RACR1		RUA1		RFA1		LUA1		LFA1		LWRR		LWRU		RTH1		LTH2		LCAR		LACR1		LFHD		RBack		RCAR		LTH4		LTH3		T10		LLFC		C7		RWRR		LASI		RWRU		RElbow		LTB2		LToe		LBHD		RBHD		LTH1		STRN		RTB1		LTB4		RTH4		RPSI		RTH2		RMT1		LMMAL		LTB1		LMT1		LCAL		LElbow		LTB3		LMT5		RTB2		RElbowM		RTH3		RLFC		LElbowM		RTB4		LLMAL		LPSI		RTB3		RCAL		RToe		RMMAL		RLMAL		RMT5
			X1	Y1	Z1	X2	Y2	Z2	X3	Y3	Z3	X4	Y4	Z4	X5	Y5	Z5	X6	Y6	Z6	X7	Y7	Z7	X8	Y8	Z8	X9	Y9	Z9	X10	Y10	Z10	X11	Y11	Z11	X12	Y12	Z12	X13	Y13	Z13	X14	Y14	Z14	X15	Y15	Z15	X16	Y16	Z16	X17	Y17	Z17	X18	Y18	Z18	X19	Y19	Z19	X20	Y20	Z20	X21	Y21	Z21	X22	Y22	Z22	X23	Y23	Z23	X24	Y24	Z24	X25	Y25	Z25	X26	Y26	Z26	X27	Y27	Z27	X28	Y28	Z28	X29	Y29	Z29	X30	Y30	Z30	X31	Y31	Z31	X32	Y32	Z32	X33	Y33	Z33	X34	Y34	Z34	X35	Y35	Z35	X36	Y36	Z36	X37	Y37	Z37	X38	Y38	Z38	X39	Y39	Z39	X40	Y40	Z40	X41	Y41	Z41	X42	Y42	Z42	X43	Y43	Z43	X44	Y44	Z44	X45	Y45	Z45	X46	Y46	Z46	X47	Y47	Z47	X48	Y48	Z48	X49	Y49	Z49	X50	Y50	Z50	X51	Y51	Z51	X52	Y52	Z52	X53	Y53	Z53	X54	Y54	Z54	X55	Y55	Z55	X56	Y56	Z56	X57	Y57	Z57	X58	Y58	Z58	X59	Y59	Z59

316	1.58	-299.86	1420.4	2.7041	-309.45	1177.4	-52.752	-314.15	816.85	117.1	-382.6	1211.4	126.24	-370.88	1074.2	212.02	-281.84	843.22	258.51	-365.5	1030.9	-306.44	-350.2	823.56	-356.58	-307.2	718.47	-351.32	-365.7	710.11	-373.38	-380.62	623.62	176.64	-296.29	588.78	-197.36	-326.81	667.54	-393.37	-381.35	1197.8	-242.19	-288.12	1429.2	-92.998	-501.39	1145.2	66.433	-225.27	698.94	280.24	-344.85	569.86	-226.23	-331.49	487.46	-197.55	-538.1	1061.3	-38.565	-296.24	401.24	-158.16	-451.88	1262.1	-57.547	-234.23	756.88	228.53	-319.71	815.95	-191.81	-284.8	736.59	275.14	-362.78	946.77	248.72	-298.14	214.73	-145.5	-160.38	31.237	-70.912	-410.07	1345.1	-125.05	-425.52	1341.6	7.0586	-358.44	652.67	-247.07	-259.16	1071.6	-50.735	-439.23	266.71	74.163	-282.96	216.2	-85.127	-379.85	538.96	160.52	-572.3	828.38	26.039	-323.62	545.82	140.33	-628.97	60.722	-10.369	-315.93	72.729	-36.737	-273.8	303.58	-90.233	-211.05	33.215	-48.261	-376.98	41.618	-73.469	-402.63	914.06	-317.04	-284.59	133.08	-80.668	-250.05	19.042	-135.36	-541.46	251.65	100.38	-408.42	907.18	177.3	-375.38	454.57	139.55	-412.73	374.02	122.82	-427.09	893.25	-250.03	-513.29	222.14	54.512	-332.27	56.994	-115.55	-582.38	835.53	-81.258	-579.94	173.82	35.96	-706.78	206.81	4.3823	-602.97	30.996	31.317	-637.05	169.51	-20.262	-666.73	172.39	57.3	-664.4	72.841	71.84
317	1.585	-293.81	1421.4	2.5649	-303.65	1178.3	-52.695	-308.04	817.74	116.92	-377.09	1212.5	126.18	-365.94	1075.4	212.15	-277.96	843.72	258.8	-358.01	1031.9	-306.2	-342.18	824.6	-356.29	-298.69	719.75	-350.72	-357.03	711.07	-373.06	-373.19	624.6	176.6	-292.06	588.47	-197.8	-317.8	668.65	-392.78	-375.16	1198.8	-242.18	-281.98	1430.1	-93.124	-495.75	1146.3	66.22	-222.31	698.93	280.55	-341	569.99	-226.39	-328.3	487.48	-197.62	-532.24	1062.3	-38.705	-293.57	400.97	-158.23	-446.04	1263	-57.737	-230.78	756.96	228.83	-314.06	817.08	-191.86	-281.58	737.2	275.55	-358.35	947.68	248.62	-296.93	214.5	-145.58	-160.3	31.181	-70.778	-404.02	1346.1	-125.23	-419.59	1342.7	6.8643	-353.95	652.96	-247.12	-253.46	1072.6	-50.82	-427.08	268.04	74.23	-281.61	215.88	-85.25	-370.77	539.99	160.64	-566.36	829.24	26.243	-314.64	547.8	140.4	-616.2	62.228	-8.1654	-315.83	72.714	-36.685	-271.67	303.21	-90.389	-211.12	33.206	-48.189	-377.02	41.664	-73.506	-395.2	914.94	-317.18	-283.99	132.77	-80.735	-250.07	19.092	-135.36	-529.27	253.17	100.71	-403.77	908.48	176.95	-364.65	455.59	139.76	-400.8	375.08	123.06	-420.02	894.07	-250.25	-501.34	223.61	54.743	-332.24	57.007	-115.54	-576.67	836.75	-81.076	-568.03	175.38	36.367	-695.24	208.03	4.533	-590.39	32.074	34.047	-625.2	170.87	-19.762	-654.88	174.35	57.843	-652.03	75.368	73.629
318	1.59	-287.79	1422.3	2.4555	-297.85	1179.3	-52.597	-301.98	818.65	116.87	-371.62	1213.5	126.15	-361	1076.6	212.32	-274.06	844.19	259.13	-350.54	1032.8	-305.93	-334.14	825.62	-356	-290.12	721.04	-350.14	-348.29	712.01	-372.74	-365.82	625.63	176.55	-287.94	588.13	-198.2	-308.72	669.79	-392.21	-369	1199.7	-242.16	-275.87	1430.9	-93.221	-490.14	1147.3	66.01	-219.28	698.92	280.89	-337.24	570.1	-226.52	-325.18	487.47	-197.65	-526.39	1063.2	-38.84	-290.98	400.7	-158.29	-440.2	1263.9	-57.89	-227.31	757.03	229.16	-308.52	818.1	-191.9	-278.29	737.79	276	-353.92	948.54	248.6	-295.77	214.26	-145.64	-160.22	31.13	-70.664	-397.98	1347.1	-125.38	-413.66	1343.8	6.706	-349.57	653.2	-247.15	-247.76	1073.6	-50.81	-414.83	269.43	74.164	-280.28	215.56	-85.358	-361.79	541.11	160.72	-560.49	830.15	26.386	-305.78	549.84	140.43	-602.73	63.467	-6.021	-315.71	72.699	-36.625	-269.59	302.83	-90.527	-211.17	33.193	-48.124	-377.05	41.713	-73.535	-387.79	915.79	-317.33	-283.4	132.47	-80.791	-250.08	19.134	-135.36	-516.9	254.51	100.97	-399.17	909.7	176.73	-354.07	456.72	139.91	-388.93	376.29	123.21	-412.96	894.83	-250.48	-489.16	224.98	54.885	-332.2	57.02	-115.52	-570.97	837.97	-80.931	-555.8	176.69	36.729	-683.49	208.6	4.7001	-576.89	33.162	36.668	-613.04	171.82	-19.274	-642.68	175.84	58.388	-638.9	77.487	75.407
319	1.595	-281.78	1423.2	2.376	-292.06	1180.2	-52.459	-295.97	819.59	116.93	-366.18	1214.5	126.18	-356.07	1077.6	212.53	-270.13	844.65	259.5	-343.1	1033.7	-305.62	-326.09	826.63	-355.7	-281.51	722.34	-349.58	-339.5	712.93	-372.43	-358.51	626.7	176.5	-283.91	587.79	-198.58	-299.57	670.96	-391.67	-362.86	1200.6	-242.11	-269.79	1431.8	-93.29	-484.55	1148.2	65.804	-216.18	698.94	281.27	-333.55	570.19	-226.63	-322.11	487.47	-197.66	-520.54	1064.1	-38.971	-288.45	400.42	-158.31	-434.35	1264.8	-58.006	-223.8	757.1	229.53	-303.08	819.03	-191.93	-274.94	738.37	276.48	-349.46	949.36	248.63	-294.63	214.02	-145.67	-160.13	31.079	-70.569	-391.96	1348	-125.49	-407.75	1344.8	6.5851	-345.29	653.41	-247.18	-242.06	1074.5	-50.706	-402.47	270.89	73.989	-278.98	215.23	-85.443	-352.92	542.3	160.77	-554.69	831.12	26.468	-297.06	551.93	140.43	-588.59	64.431	-3.9722	-315.58	72.683	-36.556	-267.56	302.45	-90.636	-211.22	33.172	-48.065	-377.08	41.765	-73.553	-380.39	916.6	-317.5	-282.83	132.17	-80.831	-250.09	19.169	-135.36	-504.37	255.67	101.16	-394.62	910.84	176.65	-343.63	457.96	140	-377.13	377.64	123.28	-405.92	895.52	-250.74	-476.77	226.24	54.959	-332.16	57.032	-115.5	-565.29	839.18	-80.829	-543.25	177.74	37.059	-671.54	208.51	4.9003	-562.51	34.228	39.142	-600.56	172.35	-18.791	-630.11	176.84	58.94	-625.05	79.159	77.137
320	1.6	-275.79	1424.1	2.3263	-286.28	1181	-52.283	-290.03	820.57	117.1	-360.76	1215.4	126.24	-351.14	1078.6	212.76	-266.16	845.08	259.91	-335.7	1034.6	-305.28	-318.01	827.63	-355.41	-272.84	723.66	-349.02	-330.65	713.84	-372.13	-351.28	627.8	176.45	-279.96	587.45	-198.91	-290.35	672.18	-391.14	-356.75	1201.5	-242.04	-263.72	1432.6	-93.331	-478.98	1149.1	65.604	-213.02	698.97	281.69	-329.9	570.26	-226.71	-319.08	487.46	-197.63	-514.69	1065	-39.103	-285.96	400.14	-158.31	-428.49	1265.7	-58.085	-220.27	757.17	229.92	-297.73	819.86	-191.96	-271.53	738.93	277	-344.98	950.13	248.73	-293.52	213.78	-145.67	-160.02	31.025	-70.49	-385.95	1348.9	-125.56	-401.83	1345.8	6.5025	-341.07	653.59	-247.19	-236.36	1075.3	-50.507	-390.01	272.38	73.726	-277.7	214.9	-85.5	-344.15	543.55	160.78	-548.95	832.14	26.487	-288.46	554.06	140.41	-573.82	65.119	-2.0512	-315.45	72.664	-36.479	-265.57	302.06	-90.71	-211.25	33.141	-48.011	-377.09	41.819	-73.561	-373.03	917.39	-317.67	-282.26	131.88	-80.849	-250.1	19.198	-135.36	-491.69	256.63	101.3	-390.11	911.91	176.69	-333.33	459.3	140.03	-365.38	379.1	123.27	-398.91	896.15	-251.02	-464.17	227.37	54.978	-332.1	57.045	-115.46	-559.62	840.38	-80.771	-530.4	178.53	37.368	-659.38	207.78	5.149	-547.32	35.244	41.429	-587.78	172.47	-18.311	-617.19	177.32	59.5	-610.5	80.362	78.786
321	1.605	-269.81	1425	2.3063	-280.5	1181.9	-52.069	-284.14	821.57	117.38	-355.36	1216.3	126.35	-346.22	1079.6	213.03	-262.15	845.49	260.35	-328.36	1035.4	-304.92	-309.93	828.63	-355.11	-264.14	725	-348.47	-321.75	714.75	-371.82	-344.11	628.92	176.4	-276.06	587.09	-199.21	-281.07	673.44	-390.63	-350.65	1202.3	-241.95	-257.69	1433.4	-93.344	-473.4	1149.9	65.412	-209.8	699.02	282.16	-326.29	570.33	-226.75	-316.08	487.46	-197.57	-508.84	1065.9	-39.237	-283.5	399.85	-158.27	-422.62	1266.5	-58.126	-216.7	757.24	230.35	-292.45	820.61	-191.99	-268.06	739.47	277.55	-340.47	950.86	248.89	-292.41	213.54	-145.64	-159.91	30.968	-70.426	-379.97	1349.8	-125.59	-395.92	1346.8	6.459	-336.89	653.75	-247.17	-230.65	1076.1	-50.214	-377.46	273.89	73.39	-276.43	214.57	-85.526	-335.49	544.84	160.77	-543.27	833.21	26.446	-279.98	556.21	140.37	-558.46	65.535	-0.28439	-315.31	72.642	-36.392	-263.63	301.68	-90.748	-211.27	33.101	-47.959	-377.1	41.877	-73.557	-365.69	918.16	-317.86	-281.7	131.59	-80.843	-250.11	19.223	-135.36	-478.87	257.38	101.4	-385.65	912.91	176.86	-323.17	460.71	140.02	-353.7	380.65	123.19	-391.93	896.73	-251.31	-451.37	228.36	54.958	-332.04	57.059	-115.42	-553.95	841.57	-80.759	-517.24	179.03	37.661	-646.99	206.42	5.4593	-531.35	36.186	43.499	-574.7	172.18	-17.833	-603.94	177.28	60.068	-595.3	81.083	80.33
322	1.61	-263.86	1425.8	2.3161	-274.72	1182.7	-51.82	-278.31	822.59	117.76	-349.95	1217.1	126.49	-341.29	1080.5	213.31	-258.1	845.87	260.81	-321.07	1036.2	-304.53	-301.85	829.63	-354.81	-255.39	726.38	-347.92	-312.81	715.67	-371.5	-337.01	630.05	176.36	-272.19	586.74	-199.47	-271.74	674.75	-390.12	-344.57	1203	-241.84	-251.68	1434.2	-93.329	-467.83	1150.7	65.229	-206.51	699.09	282.68	-322.69	570.38	-226.76	-313.1	487.46	-197.48	-502.99	1066.8	-39.376	-281.07	399.56	-158.21	-416.74	1267.4	-58.131	-213.09	757.3	230.82	-287.24	821.27	-192.03	-264.52	739.99	278.13	-335.93	951.56	249.09	-291.32	213.3	-145.58	-159.79	30.905	-70.373	-374	1350.6	-125.59	-390.02	1347.8	6.4554	-332.72	653.89	-247.14	-224.93	1076.9	-49.826	-364.84	275.41	72.998	-275.19	214.24	-85.52	-326.93	546.15	160.74	-537.65	834.33	26.346	-271.61	558.39	140.33	-542.53	65.688	1.3087	-315.16	72.616	-36.298	-261.71	301.29	-90.746	-211.28	33.052	-47.909	-377.1	41.938	-73.541	-358.38	918.9	-318.05	-281.15	131.31	-80.812	-250.11	19.245	-135.35	-465.93	257.93	101.46	-381.22	913.83	177.13	-313.12	462.2	139.97	-342.09	382.27	123.05	-384.98	897.26	-251.62	-438.39	229.2	54.906	-331.97	57.076	-115.37	-548.3	842.74	-80.794	-503.81	179.24	37.943	-634.36	204.43	5.8406	-514.68	37.03	45.329	-561.32	171.48	-17.356	-590.35	176.73	60.645	-579.47	81.323	81.751
323	1.615	-257.92	1426.6	2.3559	-268.94	1183.5	-51.536	-272.55	823.64	118.23	-344.54	1217.8	126.66	-336.36	1081.3	213.62	-254	846.25	261.3	-313.86	1037	-304.12	-293.76	830.63	-354.5	-246.62	727.78	-347.37	-303.82	716.59	-371.18	-329.99	631.18	176.32	-268.35	586.37	-199.69	-262.36	676.1	-389.63	-338.5	1203.8	-241.71	-245.69	1435	-93.285	-462.25	1151.5	65.058	-203.17	699.17	283.25	-319.1	570.43	-226.73	-310.12	487.47	-197.36	-497.14	1067.6	-39.522	-278.66	399.27	-158.11	-410.84	1268.2	-58.098	-209.44	757.37	231.33	-282.09	821.86	-192.07	-260.93	740.48	278.73	-331.35	952.23	249.34	-290.22	213.07	-145.49	-159.66	30.835	-70.331	-368.05	1351.4	-125.54	-384.12	1348.6	6.4918	-328.54	654.02	-247.08	-219.2	1077.7	-49.346	-352.16	276.92	72.56	-273.96	213.91	-85.481	-318.46	547.48	160.68	-532.08	835.49	26.191	-263.35	560.59	140.28	-526.07	65.592	2.7159	-315	72.586	-36.196	-259.83	300.9	-90.706	-211.28	32.994	-47.86	-377.09	42.003	-73.511	-351.11	919.63	-318.25	-280.6	131.03	-80.756	-250.11	19.266	-135.34	-452.86	258.26	101.49	-376.8	914.69	177.5	-303.19	463.74	139.87	-330.55	383.93	122.85	-378.05	897.75	-251.94	-425.24	229.89	54.829	-331.89	57.094	-115.31	-542.64	843.9	-80.876	-490.09	179.17	38.214	-621.49	201.84	6.2984	-497.35	37.762	46.905	-547.66	170.39	-16.88	-576.44	175.66	61.233	-563.06	81.09	83.036
324	1.62	-252	1427.4	2.4258	-263.16	1184.2	-51.219	-266.86	824.69	118.78	-339.12	1218.6	126.87	-331.42	1082.1	213.93	-249.86	846.6	261.8	-306.72	1037.8	-303.71	-285.68	831.65	-354.19	-237.83	729.23	-346.82	-294.81	717.52	-370.84	-323.04	632.3	176.28	-264.51	585.98	-199.87	-252.93	677.51	-389.13	-332.43	1204.5	-241.55	-239.73	1435.7	-93.213	-456.66	1152.2	64.901	-199.75	699.28	283.88	-315.48	570.46	-226.66	-307.14	487.47	-197.22	-491.29	1068.4	-39.677	-276.26	398.97	-157.99	-404.93	1269	-58.028	-205.74	757.45	231.89	-276.97	822.38	-192.13	-257.28	740.96	279.35	-326.73	952.88	249.63	-289.11	212.83	-145.38	-159.52	30.757	-70.296	-362.12	1352.2	-125.46	-378.22	1349.5	6.5682	-324.34	654.13	-247	-213.45	1078.4	-48.774	-339.43	278.41	72.087	-272.74	213.58	-85.412	-310.08	548.81	160.61	-526.56	836.68	25.985	-255.19	562.82	140.24	-509.11	65.262	3.9324	-314.84	72.552	-36.088	-257.97	300.51	-90.63	-211.27	32.928	-47.81	-377.07	42.073	-73.469	-343.87	920.34	-318.45	-280.05	130.75	-80.677	-250.11	19.285	-135.33	-439.69	258.36	101.5	-372.39	915.48	177.96	-293.37	465.34	139.74	-319.09	385.61	122.6	-371.16	898.21	-252.27	-411.92	230.42	54.731	-331.8	57.115	-115.24	-536.99	845.04	-81.003	-476.11	178.81	38.473	-608.34	198.68	6.834	-479.42	38.372	48.221	-533.71	168.92	-16.406	-562.21	174.08	61.831	-546.09	80.402	84.178
